<svg baseProfile="full" height="400px" version="1.1" width="800px" xmlns="http://www.w3.org/2000/svg" xmlns:ev="http://www.w3.org/2001/xml-events" xmlns:xlink="http://www.w3.org/1999/xlink"><defs /><rect fill="#0d1117" height="400" rx="15" width="800" x="0" y="0" /><text fill="#64ffda" font-family="Arial, sans-serif" font-size="24px" font-weight="bold" text-anchor="middle" x="400.0" y="40">AI Engineering Metrics</text><rect fill="#161b22" height="120" rx="10" stroke="#ff6b6b" stroke-width="2" width="160" x="50" y="80" /><text fill="#ff6b6b" font-family="Arial, sans-serif" font-size="32px" font-weight="bold" text-anchor="middle" x="130" y="140">7+</text><text fill="#ffffff" font-family="Arial, sans-serif" font-size="12px" text-anchor="middle" x="130" y="170">Projects Delivered</text><rect fill="#161b22" height="120" rx="10" stroke="#4ecdc4" stroke-width="2" width="160" x="230" y="80" /><text fill="#4ecdc4" font-family="Arial, sans-serif" font-size="32px" font-weight="bold" text-anchor="middle" x="310" y="140">92%</text><text fill="#ffffff" font-family="Arial, sans-serif" font-size="12px" text-anchor="middle" x="310" y="170">Research Accuracy</text><rect fill="#161b22" height="120" rx="10" stroke="#45b7d1" stroke-width="2" width="160" x="410" y="80" /><text fill="#45b7d1" font-family="Arial, sans-serif" font-size="32px" font-weight="bold" text-anchor="middle" x="490" y="140">85%</text><text fill="#ffffff" font-family="Arial, sans-serif" font-size="12px" text-anchor="middle" x="490" y="170">Cost Reduction</text><rect fill="#161b22" height="120" rx="10" stroke="#96ceb4" stroke-width="2" width="160" x="590" y="80" /><text fill="#96ceb4" font-family="Arial, sans-serif" font-size="32px" font-weight="bold" text-anchor="middle" x="670" y="140">15x</text><text fill="#ffffff" font-family="Arial, sans-serif" font-size="12px" text-anchor="middle" x="670" y="170">Performance Gain</text><rect fill="#161b22" height="30" rx="15" stroke="#64ffda" width="100" x="50" y="240" /><text fill="#64ffda" font-family="Arial, sans-serif" font-size="11px" text-anchor="middle" x="100" y="260">Python</text><rect fill="#161b22" height="30" rx="15" stroke="#64ffda" width="100" x="170" y="240" /><text fill="#64ffda" font-family="Arial, sans-serif" font-size="11px" text-anchor="middle" x="220" y="260">LangChain</text><rect fill="#161b22" height="30" rx="15" stroke="#64ffda" width="100" x="290" y="240" /><text fill="#64ffda" font-family="Arial, sans-serif" font-size="11px" text-anchor="middle" x="340" y="260">FAISS</text><rect fill="#161b22" height="30" rx="15" stroke="#64ffda" width="100" x="410" y="240" /><text fill="#64ffda" font-family="Arial, sans-serif" font-size="11px" text-anchor="middle" x="460" y="260">AsyncIO</text><rect fill="#161b22" height="30" rx="15" stroke="#64ffda" width="100" x="530" y="240" /><text fill="#64ffda" font-family="Arial, sans-serif" font-size="11px" text-anchor="middle" x="580" y="260">Docker</text><rect fill="#161b22" height="30" rx="15" stroke="#64ffda" width="100" x="650" y="240" /><text fill="#64ffda" font-family="Arial, sans-serif" font-size="11px" text-anchor="middle" x="700" y="260">GCP</text><text fill="#666666" font-family="Arial, sans-serif" font-size="10px" text-anchor="end" x="790" y="390">Last updated: 2025-09-09 12:26</text></svg>