<svg xmlns="http://www.w3.org/2000/svg" xmlns:ev="http://www.w3.org/2001/xml-events" xmlns:xlink="http://www.w3.org/1999/xlink" width="800" height="400" baseProfile="full" version="1.1"><rect width="800" height="400" x="0" y="0" fill="#0d1117" rx="15"/><text x="400" y="40" fill="#64ffda" font-family="Arial, sans-serif" font-size="24" font-weight="bold" text-anchor="middle">AI Engineering Metrics</text><rect width="160" height="120" x="50" y="80" fill="#161b22" stroke="#ff6b6b" stroke-width="2" rx="10"/><text x="130" y="140" fill="#ff6b6b" font-family="Arial, sans-serif" font-size="32" font-weight="bold" text-anchor="middle">7+</text><text x="130" y="170" fill="#fff" font-family="Arial, sans-serif" font-size="12" text-anchor="middle">Projects Delivered</text><rect width="160" height="120" x="230" y="80" fill="#161b22" stroke="#4ecdc4" stroke-width="2" rx="10"/><text x="310" y="140" fill="#4ecdc4" font-family="Arial, sans-serif" font-size="32" font-weight="bold" text-anchor="middle">92%</text><text x="310" y="170" fill="#fff" font-family="Arial, sans-serif" font-size="12" text-anchor="middle">Research Accuracy</text><rect width="160" height="120" x="410" y="80" fill="#161b22" stroke="#45b7d1" stroke-width="2" rx="10"/><text x="490" y="140" fill="#45b7d1" font-family="Arial, sans-serif" font-size="32" font-weight="bold" text-anchor="middle">85%</text><text x="490" y="170" fill="#fff" font-family="Arial, sans-serif" font-size="12" text-anchor="middle">Cost Reduction</text><rect width="160" height="120" x="590" y="80" fill="#161b22" stroke="#96ceb4" stroke-width="2" rx="10"/><text x="670" y="140" fill="#96ceb4" font-family="Arial, sans-serif" font-size="32" font-weight="bold" text-anchor="middle">15x</text><text x="670" y="170" fill="#fff" font-family="Arial, sans-serif" font-size="12" text-anchor="middle">Performance Gain</text><rect width="100" height="30" x="50" y="240" fill="#161b22" stroke="#64ffda" rx="15"/><text x="100" y="260" fill="#64ffda" font-family="Arial, sans-serif" font-size="11" text-anchor="middle">Python</text><rect width="100" height="30" x="170" y="240" fill="#161b22" stroke="#64ffda" rx="15"/><text x="220" y="260" fill="#64ffda" font-family="Arial, sans-serif" font-size="11" text-anchor="middle">LangChain</text><rect width="100" height="30" x="290" y="240" fill="#161b22" stroke="#64ffda" rx="15"/><text x="340" y="260" fill="#64ffda" font-family="Arial, sans-serif" font-size="11" text-anchor="middle">FAISS</text><rect width="100" height="30" x="410" y="240" fill="#161b22" stroke="#64ffda" rx="15"/><text x="460" y="260" fill="#64ffda" font-family="Arial, sans-serif" font-size="11" text-anchor="middle">AsyncIO</text><rect width="100" height="30" x="530" y="240" fill="#161b22" stroke="#64ffda" rx="15"/><text x="580" y="260" fill="#64ffda" font-family="Arial, sans-serif" font-size="11" text-anchor="middle">Docker</text><rect width="100" height="30" x="650" y="240" fill="#161b22" stroke="#64ffda" rx="15"/><text x="700" y="260" fill="#64ffda" font-family="Arial, sans-serif" font-size="11" text-anchor="middle">GCP</text><text x="790" y="390" fill="#666" font-family="Arial, sans-serif" font-size="10" text-anchor="end">Last updated: 2025-09-09 12:26</text></svg>