<?xml version="1.0" encoding="utf-8" ?>
<svg baseProfile="full" height="220px" version="1.1" width="1400px" xmlns="http://www.w3.org/2000/svg" xmlns:ev="http://www.w3.org/2001/xml-events" xmlns:xlink="http://www.w3.org/1999/xlink"><defs><linearGradient id="executive_bg" x1="0%" x2="100%" y1="0%" y2="100%"><stop offset="0%" stop-color="#1a237e" /><stop offset="30%" stop-color="#283593" /><stop offset="70%" stop-color="#3949ab" /><stop offset="100%" stop-color="#5c6bc0" /></linearGradient></defs><rect fill="url(#executive_bg)" height="100%" width="100%" x="0" y="0" /><circle cx="80" cy="62.0" fill="#64B5F6" opacity="0.8" r="4" /><line opacity="0.3" stroke="#64B5F6" stroke-width="0.8" x1="84" x2="136" y1="62.0" y2="40.0" /><line opacity="0.3" stroke="#64B5F6" stroke-width="0.8" x1="84" x2="136" y1="62.0" y2="86.66666666666666" /><line opacity="0.3" stroke="#64B5F6" stroke-width="0.8" x1="84" x2="136" y1="62.0" y2="133.33333333333331" /><circle cx="80" cy="74.0" fill="#64B5F6" opacity="0.8" r="4" /><line opacity="0.3" stroke="#64B5F6" stroke-width="0.8" x1="84" x2="136" y1="74.0" y2="40.0" /><line opacity="0.3" stroke="#64B5F6" stroke-width="0.8" x1="84" x2="136" y1="74.0" y2="86.66666666666666" /><line opacity="0.3" stroke="#64B5F6" stroke-width="0.8" x1="84" x2="136" y1="74.0" y2="133.33333333333331" /><circle cx="80" cy="86.0" fill="#64B5F6" opacity="0.8" r="4" /><line opacity="0.3" stroke="#64B5F6" stroke-width="0.8" x1="84" x2="136" y1="86.0" y2="40.0" /><line opacity="0.3" stroke="#64B5F6" stroke-width="0.8" x1="84" x2="136" y1="86.0" y2="86.66666666666666" /><line opacity="0.3" stroke="#64B5F6" stroke-width="0.8" x1="84" x2="136" y1="86.0" y2="133.33333333333331" /><circle cx="80" cy="98.0" fill="#64B5F6" opacity="0.8" r="4" /><line opacity="0.3" stroke="#64B5F6" stroke-width="0.8" x1="84" x2="136" y1="98.0" y2="40.0" /><line opacity="0.3" stroke="#64B5F6" stroke-width="0.8" x1="84" x2="136" y1="98.0" y2="86.66666666666666" /><line opacity="0.3" stroke="#64B5F6" stroke-width="0.8" x1="84" x2="136" y1="98.0" y2="133.33333333333331" /><circle cx="80" cy="110.0" fill="#64B5F6" opacity="0.8" r="4" /><line opacity="0.3" stroke="#64B5F6" stroke-width="0.8" x1="84" x2="136" y1="110.0" y2="40.0" /><line opacity="0.3" stroke="#64B5F6" stroke-width="0.8" x1="84" x2="136" y1="110.0" y2="86.66666666666666" /><line opacity="0.3" stroke="#64B5F6" stroke-width="0.8" x1="84" x2="136" y1="110.0" y2="133.33333333333331" /><circle cx="80" cy="122.0" fill="#64B5F6" opacity="0.8" r="4" /><line opacity="0.3" stroke="#64B5F6" stroke-width="0.8" x1="84" x2="136" y1="122.0" y2="40.0" /><line opacity="0.3" stroke="#64B5F6" stroke-width="0.8" x1="84" x2="136" y1="122.0" y2="86.66666666666666" /><line opacity="0.3" stroke="#64B5F6" stroke-width="0.8" x1="84" x2="136" y1="122.0" y2="133.33333333333331" /><circle cx="80" cy="134.0" fill="#64B5F6" opacity="0.8" r="4" /><line opacity="0.3" stroke="#64B5F6" stroke-width="0.8" x1="84" x2="136" y1="134.0" y2="40.0" /><line opacity="0.3" stroke="#64B5F6" stroke-width="0.8" x1="84" x2="136" y1="134.0" y2="86.66666666666666" /><line opacity="0.3" stroke="#64B5F6" stroke-width="0.8" x1="84" x2="136" y1="134.0" y2="133.33333333333331" /><circle cx="80" cy="146.0" fill="#64B5F6" opacity="0.8" r="4" /><line opacity="0.3" stroke="#64B5F6" stroke-width="0.8" x1="84" x2="136" y1="146.0" y2="40.0" /><line opacity="0.3" stroke="#64B5F6" stroke-width="0.8" x1="84" x2="136" y1="146.0" y2="86.66666666666666" /><line opacity="0.3" stroke="#64B5F6" stroke-width="0.8" x1="84" x2="136" y1="146.0" y2="133.33333333333331" /><text fill="#64B5F6" font-family="SF Pro Display, system-ui" font-size="9px" font-weight="600" opacity="0.7" x="65" y="190">INPUT</text><circle cx="140" cy="40.0" fill="#FFD54F" opacity="0.8" r="4" /><line opacity="0.3" stroke="#FFD54F" stroke-width="0.8" x1="144" x2="196" y1="40.0" y2="40.0" /><line opacity="0.3" stroke="#FFD54F" stroke-width="0.8" x1="144" x2="196" y1="40.0" y2="86.66666666666666" /><line opacity="0.3" stroke="#FFD54F" stroke-width="0.8" x1="144" x2="196" y1="40.0" y2="133.33333333333331" /><circle cx="140" cy="48.75" fill="#FFD54F" opacity="0.8" r="4" /><line opacity="0.3" stroke="#FFD54F" stroke-width="0.8" x1="144" x2="196" y1="48.75" y2="40.0" /><line opacity="0.3" stroke="#FFD54F" stroke-width="0.8" x1="144" x2="196" y1="48.75" y2="86.66666666666666" /><line opacity="0.3" stroke="#FFD54F" stroke-width="0.8" x1="144" x2="196" y1="48.75" y2="133.33333333333331" /><circle cx="140" cy="57.5" fill="#FFD54F" opacity="0.8" r="4" /><line opacity="0.3" stroke="#FFD54F" stroke-width="0.8" x1="144" x2="196" y1="57.5" y2="40.0" /><line opacity="0.3" stroke="#FFD54F" stroke-width="0.8" x1="144" x2="196" y1="57.5" y2="86.66666666666666" /><line opacity="0.3" stroke="#FFD54F" stroke-width="0.8" x1="144" x2="196" y1="57.5" y2="133.33333333333331" /><circle cx="140" cy="66.25" fill="#FFD54F" opacity="0.8" r="4" /><line opacity="0.3" stroke="#FFD54F" stroke-width="0.8" x1="144" x2="196" y1="66.25" y2="40.0" /><line opacity="0.3" stroke="#FFD54F" stroke-width="0.8" x1="144" x2="196" y1="66.25" y2="86.66666666666666" /><line opacity="0.3" stroke="#FFD54F" stroke-width="0.8" x1="144" x2="196" y1="66.25" y2="133.33333333333331" /><circle cx="140" cy="75.0" fill="#FFD54F" opacity="0.8" r="4" /><line opacity="0.3" stroke="#FFD54F" stroke-width="0.8" x1="144" x2="196" y1="75.0" y2="40.0" /><line opacity="0.3" stroke="#FFD54F" stroke-width="0.8" x1="144" x2="196" y1="75.0" y2="86.66666666666666" /><line opacity="0.3" stroke="#FFD54F" stroke-width="0.8" x1="144" x2="196" y1="75.0" y2="133.33333333333331" /><circle cx="140" cy="83.75" fill="#FFD54F" opacity="0.8" r="4" /><line opacity="0.3" stroke="#FFD54F" stroke-width="0.8" x1="144" x2="196" y1="83.75" y2="40.0" /><line opacity="0.3" stroke="#FFD54F" stroke-width="0.8" x1="144" x2="196" y1="83.75" y2="86.66666666666666" /><line opacity="0.3" stroke="#FFD54F" stroke-width="0.8" x1="144" x2="196" y1="83.75" y2="133.33333333333331" /><circle cx="140" cy="92.5" fill="#FFD54F" opacity="0.8" r="4" /><line opacity="0.3" stroke="#FFD54F" stroke-width="0.8" x1="144" x2="196" y1="92.5" y2="40.0" /><line opacity="0.3" stroke="#FFD54F" stroke-width="0.8" x1="144" x2="196" y1="92.5" y2="86.66666666666666" /><line opacity="0.3" stroke="#FFD54F" stroke-width="0.8" x1="144" x2="196" y1="92.5" y2="133.33333333333331" /><circle cx="140" cy="101.25" fill="#FFD54F" opacity="0.8" r="4" /><line opacity="0.3" stroke="#FFD54F" stroke-width="0.8" x1="144" x2="196" y1="101.25" y2="40.0" /><line opacity="0.3" stroke="#FFD54F" stroke-width="0.8" x1="144" x2="196" y1="101.25" y2="86.66666666666666" /><line opacity="0.3" stroke="#FFD54F" stroke-width="0.8" x1="144" x2="196" y1="101.25" y2="133.33333333333331" /><circle cx="140" cy="110.0" fill="#FFD54F" opacity="0.8" r="4" /><line opacity="0.3" stroke="#FFD54F" stroke-width="0.8" x1="144" x2="196" y1="110.0" y2="40.0" /><line opacity="0.3" stroke="#FFD54F" stroke-width="0.8" x1="144" x2="196" y1="110.0" y2="86.66666666666666" /><line opacity="0.3" stroke="#FFD54F" stroke-width="0.8" x1="144" x2="196" y1="110.0" y2="133.33333333333331" /><circle cx="140" cy="118.75" fill="#FFD54F" opacity="0.8" r="4" /><line opacity="0.3" stroke="#FFD54F" stroke-width="0.8" x1="144" x2="196" y1="118.75" y2="40.0" /><line opacity="0.3" stroke="#FFD54F" stroke-width="0.8" x1="144" x2="196" y1="118.75" y2="86.66666666666666" /><line opacity="0.3" stroke="#FFD54F" stroke-width="0.8" x1="144" x2="196" y1="118.75" y2="133.33333333333331" /><circle cx="140" cy="127.5" fill="#FFD54F" opacity="0.8" r="4" /><line opacity="0.3" stroke="#FFD54F" stroke-width="0.8" x1="144" x2="196" y1="127.5" y2="40.0" /><line opacity="0.3" stroke="#FFD54F" stroke-width="0.8" x1="144" x2="196" y1="127.5" y2="86.66666666666666" /><line opacity="0.3" stroke="#FFD54F" stroke-width="0.8" x1="144" x2="196" y1="127.5" y2="133.33333333333331" /><circle cx="140" cy="136.25" fill="#FFD54F" opacity="0.8" r="4" /><line opacity="0.3" stroke="#FFD54F" stroke-width="0.8" x1="144" x2="196" y1="136.25" y2="40.0" /><line opacity="0.3" stroke="#FFD54F" stroke-width="0.8" x1="144" x2="196" y1="136.25" y2="86.66666666666666" /><line opacity="0.3" stroke="#FFD54F" stroke-width="0.8" x1="144" x2="196" y1="136.25" y2="133.33333333333331" /><text fill="#FFD54F" font-family="SF Pro Display, system-ui" font-size="9px" font-weight="600" opacity="0.7" x="125" y="190">HIDDEN-1</text><circle cx="200" cy="40.0" fill="#81C784" opacity="0.8" r="3" /><line opacity="0.3" stroke="#81C784" stroke-width="0.8" x1="203" x2="257" y1="40.0" y2="40.0" /><line opacity="0.3" stroke="#81C784" stroke-width="0.8" x1="203" x2="257" y1="40.0" y2="86.66666666666666" /><line opacity="0.3" stroke="#81C784" stroke-width="0.8" x1="203" x2="257" y1="40.0" y2="133.33333333333331" /><circle cx="200" cy="44.375" fill="#81C784" opacity="0.8" r="3" /><line opacity="0.3" stroke="#81C784" stroke-width="0.8" x1="203" x2="257" y1="44.375" y2="40.0" /><line opacity="0.3" stroke="#81C784" stroke-width="0.8" x1="203" x2="257" y1="44.375" y2="86.66666666666666" /><line opacity="0.3" stroke="#81C784" stroke-width="0.8" x1="203" x2="257" y1="44.375" y2="133.33333333333331" /><circle cx="200" cy="48.75" fill="#81C784" opacity="0.8" r="3" /><line opacity="0.3" stroke="#81C784" stroke-width="0.8" x1="203" x2="257" y1="48.75" y2="40.0" /><line opacity="0.3" stroke="#81C784" stroke-width="0.8" x1="203" x2="257" y1="48.75" y2="86.66666666666666" /><line opacity="0.3" stroke="#81C784" stroke-width="0.8" x1="203" x2="257" y1="48.75" y2="133.33333333333331" /><circle cx="200" cy="53.125" fill="#81C784" opacity="0.8" r="3" /><line opacity="0.3" stroke="#81C784" stroke-width="0.8" x1="203" x2="257" y1="53.125" y2="40.0" /><line opacity="0.3" stroke="#81C784" stroke-width="0.8" x1="203" x2="257" y1="53.125" y2="86.66666666666666" /><line opacity="0.3" stroke="#81C784" stroke-width="0.8" x1="203" x2="257" y1="53.125" y2="133.33333333333331" /><circle cx="200" cy="57.5" fill="#81C784" opacity="0.8" r="3" /><line opacity="0.3" stroke="#81C784" stroke-width="0.8" x1="203" x2="257" y1="57.5" y2="40.0" /><line opacity="0.3" stroke="#81C784" stroke-width="0.8" x1="203" x2="257" y1="57.5" y2="86.66666666666666" /><line opacity="0.3" stroke="#81C784" stroke-width="0.8" x1="203" x2="257" y1="57.5" y2="133.33333333333331" /><circle cx="200" cy="61.875" fill="#81C784" opacity="0.8" r="3" /><line opacity="0.3" stroke="#81C784" stroke-width="0.8" x1="203" x2="257" y1="61.875" y2="40.0" /><line opacity="0.3" stroke="#81C784" stroke-width="0.8" x1="203" x2="257" y1="61.875" y2="86.66666666666666" /><line opacity="0.3" stroke="#81C784" stroke-width="0.8" x1="203" x2="257" y1="61.875" y2="133.33333333333331" /><circle cx="200" cy="66.25" fill="#81C784" opacity="0.8" r="3" /><line opacity="0.3" stroke="#81C784" stroke-width="0.8" x1="203" x2="257" y1="66.25" y2="40.0" /><line opacity="0.3" stroke="#81C784" stroke-width="0.8" x1="203" x2="257" y1="66.25" y2="86.66666666666666" /><line opacity="0.3" stroke="#81C784" stroke-width="0.8" x1="203" x2="257" y1="66.25" y2="133.33333333333331" /><circle cx="200" cy="70.625" fill="#81C784" opacity="0.8" r="3" /><line opacity="0.3" stroke="#81C784" stroke-width="0.8" x1="203" x2="257" y1="70.625" y2="40.0" /><line opacity="0.3" stroke="#81C784" stroke-width="0.8" x1="203" x2="257" y1="70.625" y2="86.66666666666666" /><line opacity="0.3" stroke="#81C784" stroke-width="0.8" x1="203" x2="257" y1="70.625" y2="133.33333333333331" /><circle cx="200" cy="75.0" fill="#81C784" opacity="0.8" r="3" /><line opacity="0.3" stroke="#81C784" stroke-width="0.8" x1="203" x2="257" y1="75.0" y2="40.0" /><line opacity="0.3" stroke="#81C784" stroke-width="0.8" x1="203" x2="257" y1="75.0" y2="86.66666666666666" /><line opacity="0.3" stroke="#81C784" stroke-width="0.8" x1="203" x2="257" y1="75.0" y2="133.33333333333331" /><circle cx="200" cy="79.375" fill="#81C784" opacity="0.8" r="3" /><line opacity="0.3" stroke="#81C784" stroke-width="0.8" x1="203" x2="257" y1="79.375" y2="40.0" /><line opacity="0.3" stroke="#81C784" stroke-width="0.8" x1="203" x2="257" y1="79.375" y2="86.66666666666666" /><line opacity="0.3" stroke="#81C784" stroke-width="0.8" x1="203" x2="257" y1="79.375" y2="133.33333333333331" /><circle cx="200" cy="83.75" fill="#81C784" opacity="0.8" r="3" /><line opacity="0.3" stroke="#81C784" stroke-width="0.8" x1="203" x2="257" y1="83.75" y2="40.0" /><line opacity="0.3" stroke="#81C784" stroke-width="0.8" x1="203" x2="257" y1="83.75" y2="86.66666666666666" /><line opacity="0.3" stroke="#81C784" stroke-width="0.8" x1="203" x2="257" y1="83.75" y2="133.33333333333331" /><circle cx="200" cy="88.125" fill="#81C784" opacity="0.8" r="3" /><line opacity="0.3" stroke="#81C784" stroke-width="0.8" x1="203" x2="257" y1="88.125" y2="40.0" /><line opacity="0.3" stroke="#81C784" stroke-width="0.8" x1="203" x2="257" y1="88.125" y2="86.66666666666666" /><line opacity="0.3" stroke="#81C784" stroke-width="0.8" x1="203" x2="257" y1="88.125" y2="133.33333333333331" /><text fill="#81C784" font-family="SF Pro Display, system-ui" font-size="9px" font-weight="600" opacity="0.7" x="185" y="190">ATTENTION</text><circle cx="260" cy="40.0" fill="#FFD54F" opacity="0.8" r="4" /><line opacity="0.3" stroke="#FFD54F" stroke-width="0.8" x1="264" x2="316" y1="40.0" y2="86.0" /><line opacity="0.3" stroke="#FFD54F" stroke-width="0.8" x1="264" x2="316" y1="40.0" y2="102.0" /><line opacity="0.3" stroke="#FFD54F" stroke-width="0.8" x1="264" x2="316" y1="40.0" y2="118.0" /><circle cx="260" cy="48.75" fill="#FFD54F" opacity="0.8" r="4" /><line opacity="0.3" stroke="#FFD54F" stroke-width="0.8" x1="264" x2="316" y1="48.75" y2="86.0" /><line opacity="0.3" stroke="#FFD54F" stroke-width="0.8" x1="264" x2="316" y1="48.75" y2="102.0" /><line opacity="0.3" stroke="#FFD54F" stroke-width="0.8" x1="264" x2="316" y1="48.75" y2="118.0" /><circle cx="260" cy="57.5" fill="#FFD54F" opacity="0.8" r="4" /><line opacity="0.3" stroke="#FFD54F" stroke-width="0.8" x1="264" x2="316" y1="57.5" y2="86.0" /><line opacity="0.3" stroke="#FFD54F" stroke-width="0.8" x1="264" x2="316" y1="57.5" y2="102.0" /><line opacity="0.3" stroke="#FFD54F" stroke-width="0.8" x1="264" x2="316" y1="57.5" y2="118.0" /><circle cx="260" cy="66.25" fill="#FFD54F" opacity="0.8" r="4" /><line opacity="0.3" stroke="#FFD54F" stroke-width="0.8" x1="264" x2="316" y1="66.25" y2="86.0" /><line opacity="0.3" stroke="#FFD54F" stroke-width="0.8" x1="264" x2="316" y1="66.25" y2="102.0" /><line opacity="0.3" stroke="#FFD54F" stroke-width="0.8" x1="264" x2="316" y1="66.25" y2="118.0" /><circle cx="260" cy="75.0" fill="#FFD54F" opacity="0.8" r="4" /><line opacity="0.3" stroke="#FFD54F" stroke-width="0.8" x1="264" x2="316" y1="75.0" y2="86.0" /><line opacity="0.3" stroke="#FFD54F" stroke-width="0.8" x1="264" x2="316" y1="75.0" y2="102.0" /><line opacity="0.3" stroke="#FFD54F" stroke-width="0.8" x1="264" x2="316" y1="75.0" y2="118.0" /><circle cx="260" cy="83.75" fill="#FFD54F" opacity="0.8" r="4" /><line opacity="0.3" stroke="#FFD54F" stroke-width="0.8" x1="264" x2="316" y1="83.75" y2="86.0" /><line opacity="0.3" stroke="#FFD54F" stroke-width="0.8" x1="264" x2="316" y1="83.75" y2="102.0" /><line opacity="0.3" stroke="#FFD54F" stroke-width="0.8" x1="264" x2="316" y1="83.75" y2="118.0" /><circle cx="260" cy="92.5" fill="#FFD54F" opacity="0.8" r="4" /><line opacity="0.3" stroke="#FFD54F" stroke-width="0.8" x1="264" x2="316" y1="92.5" y2="86.0" /><line opacity="0.3" stroke="#FFD54F" stroke-width="0.8" x1="264" x2="316" y1="92.5" y2="102.0" /><line opacity="0.3" stroke="#FFD54F" stroke-width="0.8" x1="264" x2="316" y1="92.5" y2="118.0" /><circle cx="260" cy="101.25" fill="#FFD54F" opacity="0.8" r="4" /><line opacity="0.3" stroke="#FFD54F" stroke-width="0.8" x1="264" x2="316" y1="101.25" y2="86.0" /><line opacity="0.3" stroke="#FFD54F" stroke-width="0.8" x1="264" x2="316" y1="101.25" y2="102.0" /><line opacity="0.3" stroke="#FFD54F" stroke-width="0.8" x1="264" x2="316" y1="101.25" y2="118.0" /><circle cx="260" cy="110.0" fill="#FFD54F" opacity="0.8" r="4" /><line opacity="0.3" stroke="#FFD54F" stroke-width="0.8" x1="264" x2="316" y1="110.0" y2="86.0" /><line opacity="0.3" stroke="#FFD54F" stroke-width="0.8" x1="264" x2="316" y1="110.0" y2="102.0" /><line opacity="0.3" stroke="#FFD54F" stroke-width="0.8" x1="264" x2="316" y1="110.0" y2="118.0" /><circle cx="260" cy="118.75" fill="#FFD54F" opacity="0.8" r="4" /><line opacity="0.3" stroke="#FFD54F" stroke-width="0.8" x1="264" x2="316" y1="118.75" y2="86.0" /><line opacity="0.3" stroke="#FFD54F" stroke-width="0.8" x1="264" x2="316" y1="118.75" y2="102.0" /><line opacity="0.3" stroke="#FFD54F" stroke-width="0.8" x1="264" x2="316" y1="118.75" y2="118.0" /><circle cx="260" cy="127.5" fill="#FFD54F" opacity="0.8" r="4" /><line opacity="0.3" stroke="#FFD54F" stroke-width="0.8" x1="264" x2="316" y1="127.5" y2="86.0" /><line opacity="0.3" stroke="#FFD54F" stroke-width="0.8" x1="264" x2="316" y1="127.5" y2="102.0" /><line opacity="0.3" stroke="#FFD54F" stroke-width="0.8" x1="264" x2="316" y1="127.5" y2="118.0" /><circle cx="260" cy="136.25" fill="#FFD54F" opacity="0.8" r="4" /><line opacity="0.3" stroke="#FFD54F" stroke-width="0.8" x1="264" x2="316" y1="136.25" y2="86.0" /><line opacity="0.3" stroke="#FFD54F" stroke-width="0.8" x1="264" x2="316" y1="136.25" y2="102.0" /><line opacity="0.3" stroke="#FFD54F" stroke-width="0.8" x1="264" x2="316" y1="136.25" y2="118.0" /><text fill="#FFD54F" font-family="SF Pro Display, system-ui" font-size="9px" font-weight="600" opacity="0.7" x="245" y="190">HIDDEN-2</text><circle cx="320" cy="86.0" fill="#64B5F6" opacity="0.8" r="4" /><circle cx="320" cy="98.0" fill="#64B5F6" opacity="0.8" r="4" /><circle cx="320" cy="110.0" fill="#64B5F6" opacity="0.8" r="4" /><circle cx="320" cy="122.0" fill="#64B5F6" opacity="0.8" r="4" /><text fill="#64B5F6" font-family="SF Pro Display, system-ui" font-size="9px" font-weight="600" opacity="0.7" x="305" y="190">OUTPUT</text><rect fill="#000000" height="80px" opacity="0.12" rx="20" ry="20" width="700px" x="420" y="40" /><rect fill="none" height="80px" opacity="0.6" rx="20" ry="20" stroke="#64B5F6" stroke-width="2" width="700px" x="420" y="40" /><text fill="#64B5F6" font-family="SF Pro Display, Arial, sans-serif" font-size="32px" font-weight="700" letter-spacing="3px" x="450" y="75">SAURABH PAREEK</text><text fill="#FFD54F" font-family="SF Pro Display, Arial, sans-serif" font-size="16px" font-weight="500" letter-spacing="1px" x="450" y="100">Full-Stack Developer • AI/ML Engineer</text><rect fill="#000000" height="60px" opacity="0.08" rx="15" ry="15" width="700px" x="420" y="140" /><text fill="#81C784" font-family="Apple Color Emoji, sans-serif" font-size="16px" x="450" y="165">🔥</text><text fill="#81C784" font-family="SF Pro Display, system-ui" font-size="11px" font-weight="600" x="475" y="165">ACTIVE DEVELOPMENT</text><circle cx="458" cy="180" fill="#81C784" opacity="0.8" r="3" /><text fill="#64B5F6" font-family="Apple Color Emoji, sans-serif" font-size="16px" x="670" y="165">⚡</text><text fill="#64B5F6" font-family="SF Pro Display, system-ui" font-size="11px" font-weight="600" x="695" y="165">OPTIMIZING SYSTEMS</text><circle cx="678" cy="180" fill="#64B5F6" opacity="0.8" r="3" /><text fill="#FFD54F" font-family="Apple Color Emoji, sans-serif" font-size="16px" x="890" y="165">🎯</text><text fill="#FFD54F" font-family="SF Pro Display, system-ui" font-size="11px" font-weight="600" x="915" y="165">⚡ HIGH PERFORMANCE</text><circle cx="898" cy="180" fill="#FFD54F" opacity="0.8" r="3" /><text fill="#64B5F6" font-family="SF Mono, monospace" font-size="10px" font-weight="400" opacity="0.8" x="450" y="190">Last Deployed: September 09, 2025 11:23:38 IST</text><rect fill="#333333" height="4px" rx="2" ry="2" width="100px" x="80" y="200" /><rect fill="#64B5F6" height="4px" rx="2" ry="2" width="95.0px" x="80" y="200" /><text fill="#64B5F6" font-family="SF Pro Display, system-ui" font-size="9px" font-weight="500" x="80" y="195">API Latency: 95%</text><rect fill="#333333" height="4px" rx="2" ry="2" width="100px" x="200" y="200" /><rect fill="#FFD54F" height="4px" rx="2" ry="2" width="88.0px" x="200" y="200" /><text fill="#FFD54F" font-family="SF Pro Display, system-ui" font-size="9px" font-weight="500" x="200" y="195">Code Quality: 88%</text><rect fill="#333333" height="4px" rx="2" ry="2" width="100px" x="320" y="200" /><rect fill="#81C784" height="4px" rx="2" ry="2" width="82.0px" x="320" y="200" /><text fill="#81C784" font-family="SF Pro Display, system-ui" font-size="9px" font-weight="500" x="320" y="195">Test Coverage: 82%</text><rect fill="none" height="190px" opacity="0.4" rx="15" ry="15" stroke="#64B5F6" stroke-width="2" width="1370px" x="15" y="15" /><path d="M 15 40 L 15 15 L 40 15" fill="none" stroke="#81C784" stroke-width="3" /><path d="M 1345 15 L 1370 15 L 1370 40" fill="none" stroke="#81C784" stroke-width="3" /><path d="M 15 215 L 15 190 L 40 190" fill="none" stroke="#81C784" stroke-width="3" /><path d="M 1345 190 L 1370 190 L 1370 215" fill="none" stroke="#81C784" stroke-width="3" /></svg>