<?xml version="1.0" encoding="utf-8" ?>
<svg baseProfile="full" height="300px" version="1.1" width="1200px" xmlns="http://www.w3.org/2000/svg" xmlns:ev="http://www.w3.org/2001/xml-events" xmlns:xlink="http://www.w3.org/1999/xlink"><defs /><rect fill="#1a1a2e" height="100%" width="100%" x="0" y="0" /><text fill="#00d4ff" font-family="Arial, sans-serif" font-size="36px" font-weight="bold" text-anchor="middle" x="600" y="80">🤖 AI ENGINEER &amp; RESEARCHER</text><text fill="#ffffff" font-family="Arial, sans-serif" font-size="18px" text-anchor="middle" x="600" y="120">Currently: Optimizing Algorithms ⚡</text><circle cx="100" cy="180" fill="#00d4ff" opacity="0.8" r="6" /><line opacity="0.3" stroke="#00d4ff" stroke-width="1" x1="100" x2="200" y1="180" y2="180" /><circle cx="200" cy="180" fill="#00d4ff" opacity="0.8" r="6" /><circle cx="300" cy="180" fill="#00d4ff" opacity="0.8" r="6" /><circle cx="400" cy="180" fill="#00d4ff" opacity="0.8" r="6" /><line opacity="0.3" stroke="#00d4ff" stroke-width="1" x1="400" x2="500" y1="180" y2="180" /><circle cx="500" cy="180" fill="#00d4ff" opacity="0.8" r="6" /><circle cx="600" cy="180" fill="#00d4ff" opacity="0.8" r="6" /><circle cx="700" cy="180" fill="#00d4ff" opacity="0.8" r="6" /><line opacity="0.3" stroke="#00d4ff" stroke-width="1" x1="700" x2="800" y1="180" y2="180" /><circle cx="800" cy="180" fill="#00d4ff" opacity="0.8" r="6" /><circle cx="900" cy="180" fill="#00d4ff" opacity="0.8" r="6" /><circle cx="1000" cy="180" fill="#00d4ff" opacity="0.8" r="6" /><line opacity="0.3" stroke="#00d4ff" stroke-width="1" x1="1000" x2="100" y1="180" y2="210" /><circle cx="100" cy="210" fill="#00d4ff" opacity="0.8" r="6" /><circle cx="200" cy="210" fill="#00d4ff" opacity="0.8" r="6" /><circle cx="300" cy="210" fill="#00d4ff" opacity="0.8" r="6" /><line opacity="0.3" stroke="#00d4ff" stroke-width="1" x1="300" x2="400" y1="210" y2="210" /><circle cx="400" cy="210" fill="#00d4ff" opacity="0.8" r="6" /><circle cx="500" cy="210" fill="#00d4ff" opacity="0.8" r="6" /><circle cx="600" cy="210" fill="#00d4ff" opacity="0.8" r="6" /><line opacity="0.3" stroke="#00d4ff" stroke-width="1" x1="600" x2="700" y1="210" y2="210" /><circle cx="700" cy="210" fill="#00d4ff" opacity="0.8" r="6" /><circle cx="800" cy="210" fill="#00d4ff" opacity="0.8" r="6" /><circle cx="900" cy="210" fill="#00d4ff" opacity="0.8" r="6" /><line opacity="0.3" stroke="#00d4ff" stroke-width="1" x1="900" x2="1000" y1="210" y2="210" /><circle cx="1000" cy="210" fill="#00d4ff" opacity="0.8" r="6" /><circle cx="100" cy="240" fill="#00d4ff" opacity="0.8" r="6" /><circle cx="200" cy="240" fill="#00d4ff" opacity="0.8" r="6" /><line opacity="0.3" stroke="#00d4ff" stroke-width="1" x1="200" x2="300" y1="240" y2="240" /><circle cx="300" cy="240" fill="#00d4ff" opacity="0.8" r="6" /><circle cx="400" cy="240" fill="#00d4ff" opacity="0.8" r="6" /><circle cx="500" cy="240" fill="#00d4ff" opacity="0.8" r="6" /><circle cx="50" cy="50" fill="#ffffff" opacity="0.4" r="2" /><circle cx="105" cy="73" fill="#ffffff" opacity="0.4" r="2" /><circle cx="160" cy="96" fill="#ffffff" opacity="0.4" r="2" /><circle cx="215" cy="119" fill="#ffffff" opacity="0.4" r="2" /><circle cx="270" cy="142" fill="#ffffff" opacity="0.4" r="2" /><circle cx="325" cy="165" fill="#ffffff" opacity="0.4" r="2" /><circle cx="380" cy="188" fill="#ffffff" opacity="0.4" r="2" /><circle cx="435" cy="211" fill="#ffffff" opacity="0.4" r="2" /><circle cx="490" cy="234" fill="#ffffff" opacity="0.4" r="2" /><circle cx="545" cy="57" fill="#ffffff" opacity="0.4" r="2" /><circle cx="600" cy="80" fill="#ffffff" opacity="0.4" r="2" /><circle cx="655" cy="103" fill="#ffffff" opacity="0.4" r="2" /><circle cx="710" cy="126" fill="#ffffff" opacity="0.4" r="2" /><circle cx="765" cy="149" fill="#ffffff" opacity="0.4" r="2" /><circle cx="820" cy="172" fill="#ffffff" opacity="0.4" r="2" /><circle cx="875" cy="195" fill="#ffffff" opacity="0.4" r="2" /><circle cx="930" cy="218" fill="#ffffff" opacity="0.4" r="2" /><circle cx="985" cy="241" fill="#ffffff" opacity="0.4" r="2" /><circle cx="1040" cy="64" fill="#ffffff" opacity="0.4" r="2" /><circle cx="1095" cy="87" fill="#ffffff" opacity="0.4" r="2" /><text fill="#8b949e" font-family="Arial, sans-serif" font-size="12px" text-anchor="middle" x="600" y="280">Last Updated: 2025-09-13 20:36 IST</text></svg>